
<svg xmlns="http://www.w3.org/2000/svg" version="1.0" viewBox="0 0 725 725">
  <path d="M447 125c-87 5-169 44-241 94-9 5-18 13-27 19-43 2-85 16-120 41-34 27-50 72-55 115-5 52 1 107 23 154 7 13 16 25 26 34 5-7 18-7 19-17 0-11-11-16-13-25-26-47-26-109 3-154 16-27 42-50 73-53 13-1 26 5 37 13 5 2 11 1 16-1-18 28-24 63-17 95 6 29 25 53 44 74 16 16 35 30 56 36 9 0 19-5 21-15 0-11-11-16-18-20-17-13-34-27-49-44a84 84 0 01-23-61c2-19 7-39 16-56 7-11 20-19 33-14 14 3 29 12 42 4 14-9 16-27 19-42 2-21-10-41-28-50-13-9-28-12-43-14 33-17 70-20 106-21 13-1 28 3 37 13l12 12c-32 44-55 98-52 154 3 57 38 110 87 135 11 5 25-11 18-22-8-15-25-21-36-34-32-34-45-89-29-135 10-30 25-58 44-84 8-11 19-23 33-24 14 1 26 9 40 11l16 2c-40 39-58 97-57 153 2 58 32 115 80 143 42 26 91 36 139 37 13 0 27 0 39-6 7-5 6-17-1-19-17-7-35-4-52-7-44-6-90-17-123-50-38-37-55-95-42-147 8-34 24-66 50-87 9-7 23-11 33-2 12 10 17 29 32 37 5 4 13 7 19 2 19-10 39-27 41-50 2-24-11-46-25-63-23-26-58-37-91-37-10 0-21 1-30-4-24-18-54-20-82-20zm12 32c19 1 43 6 53 26 4 8 4 21-5 24-7 2-10-6-15-8a63 63 0 00-71 5c-11 4-19-9-28-13-15-8-33-9-50-7 37-15 76-25 116-27zm112 27c28 2 56 22 61 51 2 8 1 20-7 24-8-15-15-32-30-41-13-5-29-2-42-5 3-9 0-19-1-27l19-2zm-375 85c20 1 41 0 60 4 14 4 24 20 19 35-2 2-6-2-8-2-24-9-50-16-74-6-6 1-11 9-17 4-9-5-17-11-27-10-32 0-60 20-83 42-10 10-19 22-28 33 7-37 34-69 67-83 29-13 61-17 91-17z" fill="#3684bf"/>
</svg>
