<svg xmlns="http://www.w3.org/2000/svg" fill="none" viewBox="0 0 100 100">
  <defs>
    <clipPath id="a">
      <path fill="#fff" d="M100 100h100v100H100z"/>
    </clipPath>
  </defs>
  <g clip-path="url(#a)" transform="translate(-100 -100)">
    <path fill="#fff" d="M150 175a25 25 0 1 0 0-50 25 25 0 0 0 0 50z"/>
    <path fill="#229342" d="m128 163-21-38a50 50 0 0 0 18 68 50 50 0 0 0 25 7l22-37v-1a25 25 0 0 1-35 10 25 25 0 0 1-9-9z"/>
    <path fill="#fbc116" d="m172 163-22 37a50 50 0 0 0 43-25 50 50 0 0 0 0-50h-43a25 25 0 0 1 22 38z"/>
    <path fill="#1a73e8" d="M150 170a20 20 0 1 0 0-40 20 20 0 0 0 0 40z"/>
    <path fill="#e33b2e" d="M150 125h43a50 50 0 0 0-86 0l21 38a25 25 0 0 1 0-25 25 25 0 0 1 22-13z"/>
  </g>
</svg>
