<svg xmlns="http://www.w3.org/2000/svg" fill="none" viewBox="0 0 100 100">
  <g clip-path="url(#a)" transform="translate(-100 -300)">
    <path fill="url(#b)" d="M190.3 374.4a36.6 36.6 0 0 1-4.2 1.9 39.8 39.8 0 0 1-14 2.4c-18.5 0-34.6-12.6-34.6-29a12.3 12.3 0 0 1 6.4-10.6c-16.7.7-21 18-21 28.3 0 28.9 26.6 31.8 32.4 31.8 3 0 7.7-1 10.5-1.8l.5-.2a50.1 50.1 0 0 0 26-20.6 1.6 1.6 0 0 0-2-2.2z"/>
    <path fill="url(#c)" d="M190.3 374.4a36.6 36.6 0 0 1-4.2 1.9 39.8 39.8 0 0 1-14 2.4c-18.5 0-34.6-12.6-34.6-29a12.3 12.3 0 0 1 6.4-10.6c-16.7.7-21 18-21 28.3 0 28.9 26.6 31.8 32.4 31.8 3 0 7.7-1 10.5-1.8l.5-.2a50.1 50.1 0 0 0 26-20.6 1.6 1.6 0 0 0-2-2.2z" opacity=".3"/>
    <path fill="url(#d)" d="M141.3 394.3a31 31 0 0 1-8.9-8.4 31.5 31.5 0 0 1 11.5-46.8c1.3-.6 3.4-1.6 6.1-1.6a12.7 12.7 0 0 1 10 5 12.5 12.5 0 0 1 2.5 7.4s9.6-31.1-31.2-31.1a32.8 32.8 0 0 0-31.3 30.5 50.8 50.8 0 0 0 4.8 22 50 50 0 0 0 61 26 29.5 29.5 0 0 1-24.5-3z"/>
    <path fill="url(#e)" d="M141.3 394.3a31 31 0 0 1-8.9-8.4 31.5 31.5 0 0 1 11.5-46.8c1.3-.6 3.4-1.6 6.1-1.6a12.7 12.7 0 0 1 10 5 12.5 12.5 0 0 1 2.5 7.4s9.6-31.1-31.2-31.1a32.8 32.8 0 0 0-31.3 30.5 50.8 50.8 0 0 0 4.8 22 50 50 0 0 0 61 26 29.5 29.5 0 0 1-24.5-3z" opacity=".4"/>
    <path fill="url(#f)" d="M159.5 358.1c-.3.4-1.3 1-1.3 2.2 0 1 .7 2 1.9 2.9 5.6 3.9 16.2 3.3 16.2 3.3a23.3 23.3 0 0 0 11.8-3.2 24 24 0 0 0 11.9-20.7c.1-8.7-3.1-14.6-4.4-17.1A50.2 50.2 0 0 0 150 300a50 50 0 0 0-50 49.3c.2-14.3 14.4-25.8 31.3-25.8 1.3 0 9.1.1 16.4 4a28.4 28.4 0 0 1 12 11.4c2.4 4.1 2.8 9.4 2.8 11.5 0 2.1-1 5.2-3 7.8z"/>
    <path fill="url(#g)" d="M159.5 358.1c-.3.4-1.3 1-1.3 2.2 0 1 .7 2 1.9 2.9 5.6 3.9 16.2 3.3 16.2 3.3a23.3 23.3 0 0 0 11.8-3.2 24 24 0 0 0 11.9-20.7c.1-8.7-3.1-14.6-4.4-17.1A50.2 50.2 0 0 0 150 300a50 50 0 0 0-50 49.3c.2-14.3 14.4-25.8 31.3-25.8 1.3 0 9.1.1 16.4 4a28.4 28.4 0 0 1 12 11.4c2.4 4.1 2.8 9.4 2.8 11.5 0 2.1-1 5.2-3 7.8z"/>
  </g>
  <defs>
    <radialGradient id="c" cx="0" cy="0" r="1" gradientTransform="matrix(37.2656 0 0 35.4023 161.4 369.7)" gradientUnits="userSpaceOnUse">
      <stop offset=".7" stop-opacity="0"/>
      <stop offset=".9" stop-opacity=".5"/>
      <stop offset="1"/>
    </radialGradient>
    <radialGradient id="e" cx="0" cy="0" r="1" gradientTransform="matrix(8.39058 -55.37816 44.73998 6.77875 127.6 377.7)" gradientUnits="userSpaceOnUse">
      <stop offset=".8" stop-opacity="0"/>
      <stop offset=".9" stop-opacity=".5"/>
      <stop offset="1"/>
    </radialGradient>
    <radialGradient id="f" cx="0" cy="0" r="1" gradientTransform="matrix(-3.16249 79.06248 -168.38635 -6.73542 110.1 318.5)" gradientUnits="userSpaceOnUse">
      <stop stop-color="#35C1F1"/>
      <stop offset=".1" stop-color="#34C1ED"/>
      <stop offset=".2" stop-color="#2FC2DF"/>
      <stop offset=".3" stop-color="#2BC3D2"/>
      <stop offset=".7" stop-color="#36C752"/>
    </radialGradient>
    <radialGradient id="g" cx="0" cy="0" r="1" gradientTransform="matrix(10.64218 36.48749 -29.67168 8.65424 193.8 330.2)" gradientUnits="userSpaceOnUse">
      <stop stop-color="#66EB6E"/>
      <stop offset="1" stop-color="#66EB6E" stop-opacity="0"/>
    </radialGradient>
    <linearGradient id="b" x1="122.9" x2="192.6" y1="369.1" y2="369.1" gradientUnits="userSpaceOnUse">
      <stop stop-color="#0C59A4"/>
      <stop offset="1" stop-color="#114A8B"/>
    </linearGradient>
    <linearGradient id="d" x1="159.6" x2="116.2" y1="338.9" y2="386.3" gradientUnits="userSpaceOnUse">
      <stop stop-color="#1B9DE2"/>
      <stop offset=".2" stop-color="#1595DF"/>
      <stop offset=".7" stop-color="#0680D7"/>
      <stop offset="1" stop-color="#0078D4"/>
    </linearGradient>
    <clipPath id="a">
      <path fill="#fff" d="M100 300h100v100H100z"/>
    </clipPath>
  </defs>
</svg>
