<!DOCTYPE svg PUBLIC "-//W3C//DTD SVG 1.1//EN"
  "http://www.w3.org/Graphics/SVG/1.1/DTD/svg11.dtd">
<svg width="1600" height="1200" xmlns="http://www.w3.org/2000/svg" viewBox="0 0 1600 1200"><defs><pattern id="waves" width="300" height="150" patternUnits="userSpaceOnUse"><circle cx="150" cy="0" r="147.5" stroke-width="5" stroke="cadetblue" fill="white"></circle><circle cx="150" cy="0" r="127.5" stroke-width="5" stroke="cadetblue" fill="white"></circle><circle cx="150" cy="0" r="107.5" stroke-width="5" stroke="cadetblue" fill="white"></circle><circle cx="150" cy="0" r="87.5" stroke-width="5" stroke="cadetblue" fill="white"></circle><circle cx="150" cy="0" r="67.5" stroke-width="5" stroke="cadetblue" fill="white"></circle><circle cx="150" cy="0" r="47.5" stroke-width="5" stroke="cadetblue" fill="white"></circle><circle cx="150" cy="0" r="27.5" stroke-width="5" stroke="cadetblue" fill="white"></circle><circle cx="0" cy="75" r="147.5" stroke-width="5" stroke="cadetblue" fill="white"></circle><circle cx="0" cy="75" r="127.5" stroke-width="5" stroke="cadetblue" fill="white"></circle><circle cx="0" cy="75" r="107.5" stroke-width="5" stroke="cadetblue" fill="white"></circle><circle cx="0" cy="75" r="87.5" stroke-width="5" stroke="cadetblue" fill="white"></circle><circle cx="0" cy="75" r="67.5" stroke-width="5" stroke="cadetblue" fill="white"></circle><circle cx="0" cy="75" r="47.5" stroke-width="5" stroke="cadetblue" fill="white"></circle><circle cx="0" cy="75" r="27.5" stroke-width="5" stroke="cadetblue" fill="white"></circle><circle cx="300" cy="75" r="147.5" stroke-width="5" stroke="cadetblue" fill="white"></circle><circle cx="300" cy="75" r="127.5" stroke-width="5" stroke="cadetblue" fill="white"></circle><circle cx="300" cy="75" r="107.5" stroke-width="5" stroke="cadetblue" fill="white"></circle><circle cx="300" cy="75" r="87.5" stroke-width="5" stroke="cadetblue" fill="white"></circle><circle cx="300" cy="75" r="67.5" stroke-width="5" stroke="cadetblue" fill="white"></circle><circle cx="300" cy="75" r="47.5" stroke-width="5" stroke="cadetblue" fill="white"></circle><circle cx="300" cy="75" r="27.5" stroke-width="5" stroke="cadetblue" fill="white"></circle><circle cx="150" cy="150" r="147.5" stroke-width="5" stroke="cadetblue" fill="white"></circle><circle cx="150" cy="150" r="127.5" stroke-width="5" stroke="cadetblue" fill="white"></circle><circle cx="150" cy="150" r="107.5" stroke-width="5" stroke="cadetblue" fill="white"></circle><circle cx="150" cy="150" r="87.5" stroke-width="5" stroke="cadetblue" fill="white"></circle><circle cx="150" cy="150" r="67.5" stroke-width="5" stroke="cadetblue" fill="white"></circle><circle cx="150" cy="150" r="47.5" stroke-width="5" stroke="cadetblue" fill="white"></circle><circle cx="150" cy="150" r="27.5" stroke-width="5" stroke="cadetblue" fill="white"></circle><circle cx="0" cy="225" r="147.5" stroke-width="5" stroke="cadetblue" fill="white"></circle><circle cx="0" cy="225" r="127.5" stroke-width="5" stroke="cadetblue" fill="white"></circle><circle cx="0" cy="225" r="107.5" stroke-width="5" stroke="cadetblue" fill="white"></circle><circle cx="0" cy="225" r="87.5" stroke-width="5" stroke="cadetblue" fill="white"></circle><circle cx="0" cy="225" r="67.5" stroke-width="5" stroke="cadetblue" fill="white"></circle><circle cx="0" cy="225" r="47.5" stroke-width="5" stroke="cadetblue" fill="white"></circle><circle cx="0" cy="225" r="27.5" stroke-width="5" stroke="cadetblue" fill="white"></circle><circle cx="300" cy="225" r="147.5" stroke-width="5" stroke="cadetblue" fill="white"></circle><circle cx="300" cy="225" r="127.5" stroke-width="5" stroke="cadetblue" fill="white"></circle><circle cx="300" cy="225" r="107.5" stroke-width="5" stroke="cadetblue" fill="white"></circle><circle cx="300" cy="225" r="87.5" stroke-width="5" stroke="cadetblue" fill="white"></circle><circle cx="300" cy="225" r="67.5" stroke-width="5" stroke="cadetblue" fill="white"></circle><circle cx="300" cy="225" r="47.5" stroke-width="5" stroke="cadetblue" fill="white"></circle><circle cx="300" cy="225" r="27.5" stroke-width="5" stroke="cadetblue" fill="white"></circle></pattern></defs><rect x="0" y="0" height="1200" width="1600" fill="url(#waves)"></rect></svg>