<svg xmlns="http://www.w3.org/2000/svg" version="1.0" viewBox="0 0 725 477">
  <path d="M449 0c-87 0-188 60-271 122-85 5-152 39-171 133-10 52-8 108 6 159 7 23 16 46 33 63 4-4 13-4 13-11-1-5-7-8-9-14-27-48-30-108-9-159 22-47 72-112 124-71 6 7 18 4 24-2 6-4 9-10 17-10-24 25-37 54-36 99 3 55 43 106 84 130 5 2 10 6 16 7 5-2 12-3 12-10-4-9-12-12-19-18-36-29-55-51-67-84-13-43 11-121 47-117 15 1 28 13 43 8 11-5 13-17 16-27 13-58-32-79-83-78 43-26 101-39 145-33 18 3 28 21 42 31-33 47-57 102-56 159 0 62 32 119 86 149 6-1 13-7 10-14-5-11-17-16-25-25-33-30-52-75-50-121 8-56 35-117 71-155 33-30 45 26 94 4-35 27-55 72-64 115-14 88 18 182 95 220 32 16 67 22 101 25 18 1 36 2 53-4 4-1 6-7 2-9-13-6-28-4-42-6-97-10-169-50-185-159-9-45 12-159 77-171 36 2 24 49 60 51 20-10 40-26 43-50 2-17-6-34-14-49-33-53-76-54-128-52-22-21-56-26-85-26zm6 21c33-4 69 13 70 49-1 10-10 22-21 19-23-20-50-24-73-8-6 6-17 8-24 2-31-28-57-27-109-11 48-29 101-46 157-51zm177 125c-19-49-48-59-85-52 9-13 4-27 1-41 79-22 128 74 84 93zm-432-5c41-2 92 10 74 58-54-36-85-4-94 0-71-43-123 15-158 82 20-121 108-136 178-140z"/>
</svg>