<svg xmlns="http://www.w3.org/2000/svg" fill="none" viewBox="0 0 95 95.7">
  <g clip-path="url(#a)" transform="translate(-102.5 -703)">
    <path fill="#000" d="M195.6 754.6a43 43 0 0 1-3.5 16.9 44.1 44.1 0 0 1-9.8 14.3 45.7 45.7 0 0 1-14.8 9.6 47 47 0 0 1-17.5 3.3 47 47 0 0 1-17.5-3.3 45.7 45.7 0 0 1-14.7-9.6 44.1 44.1 0 0 1-10-14.3 43 43 0 0 1-3.4-17c0-11.6 4.8-22.9 13.4-31.1a46.4 46.4 0 0 1 49.7-9.6 45.7 45.7 0 0 1 14.8 9.6 44.1 44.1 0 0 1 9.8 14.3 43 43 0 0 1 3.5 16.9z" opacity=".5"/>
    <path fill="url(#b)" stroke="#cdcdcd" stroke-linecap="round" stroke-linejoin="round" stroke-width=".4" d="M197.3 750.7a47.8 47.8 0 0 1-3.6 18.2 47.6 47.6 0 0 1-10.2 15.5 47.3 47.3 0 0 1-15.4 10.3 47.1 47.1 0 0 1-18.1 3.6 47.2 47.2 0 0 1-33.5-14 47.7 47.7 0 0 1-13.8-33.6 47.7 47.7 0 0 1 13.8-33.7 47.2 47.2 0 0 1 33.5-14 47.1 47.1 0 0 1 18.1 3.7 47.3 47.3 0 0 1 15.4 10.3 47.6 47.6 0 0 1 10.2 15.5 47.8 47.8 0 0 1 3.6 18.2z"/>
    <path fill="url(#c)" d="M193.6 750.7a44 44 0 0 1-12.7 31 43.5 43.5 0 0 1-30.9 12.9 43.5 43.5 0 0 1-30.9-12.9 44 44 0 0 1-12.7-31 44 44 0 0 1 12.7-31 43.5 43.5 0 0 1 30.9-12.9 43.5 43.5 0 0 1 30.9 12.9 44 44 0 0 1 12.7 31z"/>
    <path fill="#f4f2f3" d="M150 709.1a.6.6 0 0 0-.6.6v7.4a.6.6 0 1 0 1.2 0v-7.4a.6.6 0 0 0-.6-.6zm-4.2.3a.6.6 0 0 0-.7.7l.4 3a.6.6 0 1 0 1.2 0l-.3-3.2a.6.6 0 0 0-.6-.5zm8.4 0a.6.6 0 0 0-.6.5l-.3 3.1a.6.6 0 1 0 1.3.2l.3-3.1a.6.6 0 0 0-.7-.7zm-12.6.6a.6.6 0 0 0-.7.8l1.6 7.2a.6.6 0 1 0 1.2-.3l-1.5-7.2a.6.6 0 0 0-.6-.5zm16.9 0a.6.6 0 0 0-.7.5l-1.5 7.2a.6.6 0 0 0 .5.8.6.6 0 0 0 .8-.5l1.5-7.2a.6.6 0 0 0-.6-.8zm-21 1.1a.6.6 0 0 0-.7.9l1 3c0 .3.4.5.8.3a.6.6 0 0 0 .4-.8l-1-3a.6.6 0 0 0-.5-.4zm25 0a.6.6 0 0 0-.5.5l-1 3a.6.6 0 0 0 .4.7.6.6 0 0 0 .8-.4l1-3a.6.6 0 0 0-.7-.7zm-29 1.5a.6.6 0 0 0-.6 1l3 6.7a.6.6 0 0 0 .8.3.6.6 0 0 0 .3-.8l-3-6.8a.6.6 0 0 0-.6-.4zm33.1 0a.6.6 0 0 0-.6.4l-3 6.8a.6.6 0 0 0 .3.8c.4.2.7 0 .9-.3l3-6.7a.6.6 0 0 0-.6-1zm-36.9 2a.6.6 0 0 0-.6 1l1.6 2.7a.6.6 0 0 0 .8.2.6.6 0 0 0 .3-.9l-1.6-2.7a.6.6 0 0 0-.5-.3zm40.6 0a.6.6 0 0 0-.5.3l-1.6 2.7a.6.6 0 0 0 .3 1 .6.6 0 0 0 .8-.3l1.6-2.7a.6.6 0 0 0-.6-1zm-44.2 2.3a.6.6 0 0 0-.5 1l4.3 6c.2.3.6.3.9.1a.6.6 0 0 0 .1-.9l-4.3-6a.6.6 0 0 0-.5-.2zm47.9 0a.6.6 0 0 0-.6.3l-4.3 6a.6.6 0 0 0 .2.9.6.6 0 0 0 .9-.2l4.3-6a.6.6 0 0 0-.5-1zm-51.2 2.7a.6.6 0 0 0-.5 1.1l2 2.3a.6.6 0 0 0 1 0 .6.6 0 0 0 0-.8l-2-2.3a.6.6 0 0 0-.5-.3zm54.4 0a.6.6 0 0 0-.5.3l-2 2.3a.6.6 0 0 0 0 .9.6.6 0 0 0 1 0l2-2.4a.6.6 0 0 0-.5-1zm-57.5 3a.6.6 0 0 0-.4 1.2l5.5 5a.6.6 0 0 0 .9-.1.6.6 0 0 0 0-1l-5.5-4.9a.6.6 0 0 0-.5-.1zm60.6 0a.6.6 0 0 0-.4.2l-5.5 5a.6.6 0 0 0 .9 1l5.4-5a.6.6 0 0 0-.4-1.1zm-63.2 3.4a.6.6 0 0 0-.4 1.2l2.5 1.8a.6.6 0 0 0 .9-.2.6.6 0 0 0-.1-.8l-2.5-1.9a.6.6 0 0 0-.4 0zm65.8 0a.6.6 0 0 0-.3.2L180 728a.6.6 0 0 0-.2.9c.2.3.6.3.9.1l2.5-1.8a.6.6 0 0 0-.4-1.2zm-68.2 3.6a.6.6 0 0 0-.3 1.2l6.4 3.7a.6.6 0 0 0 .6-1.1l-6.3-3.7a.6.6 0 0 0-.4-.1zm70.6 0a.6.6 0 0 0-.4 0l-6.3 3.8a.6.6 0 0 0 .6 1l6.4-3.6a.6.6 0 0 0-.3-1.2zm-72.4 3.8a.6.6 0 0 0-.3 1.2l2.8 1.3a.6.6 0 0 0 .5-1.2l-2.8-1.3a.6.6 0 0 0-.2 0zm74.3 0a.6.6 0 0 0-.3 0l-2.8 1.3a.6.6 0 0 0-.3.9c.1.3.5.4.8.3l2.8-1.3a.6.6 0 0 0-.2-1.2zm-76 4a.6.6 0 0 0-.1 1.2l7 2.3a.6.6 0 0 0 .4-1.2l-7-2.3a.6.6 0 0 0-.3 0zm77.6 0a.6.6 0 0 0-.3 0l-7 2.3a.6.6 0 0 0-.4.8c.2.3.5.5.8.4l7-2.3a.6.6 0 0 0-.1-1.2zm-78.6 4.1a.6.6 0 0 0-.6.6.6.6 0 0 0 .5.7l3 .7a.6.6 0 0 0 .7-.5.6.6 0 0 0-.4-.8l-3-.6a.6.6 0 0 0-.2 0zm79.6 0a.8.8 0 0 0-.1 0l-3 .7a.6.6 0 0 0-.5.8c0 .3.4.5.7.5l3-.7a.6.6 0 0 0 .5-.7.6.6 0 0 0-.6-.5zm-80.4 4.2a.6.6 0 0 0-.5.6.6.6 0 0 0 .5.7l7.3.8a.6.6 0 0 0 .7-.6.6.6 0 0 0-.5-.7l-7.3-.8a.6.6 0 0 0-.2 0zm81.2.1a.6.6 0 0 0-.2 0l-7.3.8a.6.6 0 0 0-.5.7.6.6 0 0 0 .7.5l7.3-.7a.6.6 0 0 0 .5-.7.6.6 0 0 0-.5-.6zm-81.3 4.3a.6.6 0 0 0-.6.6c0 .3.3.6.6.6h3.1a.6.6 0 0 0 .6-.6.6.6 0 0 0-.6-.6zm78.3 0a.6.6 0 0 0-.6.6c0 .3.2.6.6.6h3a.6.6 0 0 0 .7-.6.6.6 0 0 0-.6-.6zm-70.7 3.4a.6.6 0 0 0-.2 0l-7.3.8a.6.6 0 0 0-.5.7.6.6 0 0 0 .7.6l7.3-.8a.6.6 0 0 0 .5-.7.6.6 0 0 0-.5-.6zm66.2 0a.6.6 0 0 0-.5.7.6.6 0 0 0 .5.7l7.3.7a.6.6 0 0 0 .7-.5.6.6 0 0 0-.5-.7l-7.3-.8a.7.7 0 0 0-.2 0zm-69.9 4.4a.6.6 0 0 0-.1 0l-3 .7a.6.6 0 0 0-.5.7c0 .4.4.6.7.5l3-.6a.6.6 0 0 0 .5-.8.6.6 0 0 0-.6-.5zm73.6 0a.6.6 0 0 0-.6.5.6.6 0 0 0 .4.8l3 .6a.6.6 0 0 0 .8-.5.6.6 0 0 0-.5-.7l-3-.7a.6.6 0 0 0-.1 0zm-68.5 2.5a.6.6 0 0 0-.2 0l-7 2.3a.6.6 0 0 0-.4.8c0 .4.4.6.8.5l7-2.3a.6.6 0 0 0-.2-1.3zm63.4 0a.6.6 0 0 0-.6.5.6.6 0 0 0 .4.8l7 2.3a.6.6 0 0 0 .4-1.2l-7-2.3a.6.6 0 0 0-.2 0zm-66 5a.6.6 0 0 0-.3 0l-2.8 1.3a.6.6 0 0 0 .5 1.2l2.8-1.2a.6.6 0 0 0-.3-1.3zm68.6 0a.6.6 0 0 0-.2 1.3l2.8 1.2a.6.6 0 0 0 .5-1.1l-2.8-1.3a.6.6 0 0 0-.3 0zm-63.2 1.4a.6.6 0 0 0-.3.1l-6.4 3.7a.6.6 0 0 0 .7 1.1l6.3-3.7a.6.6 0 0 0-.3-1.2zm57.8 0a.6.6 0 0 0-.3 1.2l6.3 3.7a.6.6 0 0 0 1-.2.6.6 0 0 0-.3-.9l-6.4-3.7a.6.6 0 0 0-.3 0zm-59.4 5.4a.6.6 0 0 0-.3.2l-2.5 1.8a.6.6 0 0 0-.1.9c.2.3.6.3.8.1l2.5-1.8a.6.6 0 0 0-.4-1.2zm61 0a.6.6 0 0 0-.5 1.2l2.5 1.9a.6.6 0 0 0 1-.2.6.6 0 0 0-.2-.9l-2.5-1.8a.6.6 0 0 0-.4-.1zm-55.3.3a.6.6 0 0 0-.5.2l-5.4 4.9a.6.6 0 0 0 0 .9.6.6 0 0 0 .8 0l5.5-4.9a.6.6 0 0 0-.4-1.1zm49.6 0a.6.6 0 0 0-.4 1.1l5.4 5a.6.6 0 0 0 1 0 .6.6 0 0 0-.1-1l-5.5-5a.6.6 0 0 0-.4 0zm-44.4 4.7a.6.6 0 0 0-.6.3l-4.3 6a.6.6 0 0 0 .2.8.6.6 0 0 0 .9-.1l4.3-6a.6.6 0 0 0-.5-1zm39.2 0a.6.6 0 0 0-.5 1l4.3 6c.2.3.6.4.9.2a.6.6 0 0 0 .1-1l-4.3-6a.6.6 0 0 0-.5-.2zm-44.8 1a.6.6 0 0 0-.4.2l-2 2.3a.6.6 0 0 0 0 .9.6.6 0 0 0 .9 0l2-2.4a.6.6 0 0 0-.5-1zm50.4 0a.6.6 0 0 0-.5 1l2 2.3a.6.6 0 0 0 1 0 .6.6 0 0 0 0-.8l-2-2.3a.6.6 0 0 0-.5-.3zm-38.8 2.5a.6.6 0 0 0-.6.4l-3 6.7a.6.6 0 0 0 .4.9c.3.1.6 0 .8-.4l3-6.7a.6.6 0 0 0-.6-.9zm27.1 0a.6.6 0 0 0-.5 1l3 6.7a.6.6 0 0 0 .8.3.6.6 0 0 0 .3-.9l-3-6.7a.6.6 0 0 0-.6-.4zm-32.3 2a.6.6 0 0 0-.5.4l-1.6 2.7a.6.6 0 0 0 .2.9.6.6 0 0 0 1-.3l1.5-2.7a.6.6 0 0 0-.6-1zm37.6 0a.6.6 0 0 0-.6 1l1.6 2.7a.6.6 0 0 0 .9.3.6.6 0 0 0 .2-.9l-1.6-2.7a.6.6 0 0 0-.5-.3zm-25.7.2a.6.6 0 0 0-.7.5l-1.5 7.2a.6.6 0 0 0 .5.8.6.6 0 0 0 .8-.5l1.5-7.2a.6.6 0 0 0-.6-.8zm13.8 0a.6.6 0 0 0-.6.8l1.5 7.2a.6.6 0 1 0 1.3-.3l-1.6-7.2a.6.6 0 0 0-.6-.5zm-6.9.7a.6.6 0 0 0-.6.7v7.3a.6.6 0 1 0 1.2 0v-7.3a.6.6 0 0 0-.6-.7zm-11.7 2.4a.6.6 0 0 0-.5.4l-1 3a.6.6 0 0 0 .4.8.6.6 0 0 0 .8-.4l1-3a.6.6 0 0 0-.7-.8zm23.4 0a.6.6 0 0 0-.7.8l1 3c0 .3.4.5.8.4a.6.6 0 0 0 .4-.8l-1-3a.6.6 0 0 0-.5-.4zm-15.7 1.6a.6.6 0 0 0-.6.6l-.3 3.1a.6.6 0 1 0 1.3.1l.3-3a.6.6 0 0 0-.7-.8zm8 0a.6.6 0 0 0-.7.8l.3 3a.6.6 0 1 0 1.3 0l-.4-3.2a.6.6 0 0 0-.5-.5z"/>
    <g filter="url(#d)" opacity=".4">
      <path fill="#000" d="M179.8 725.1 145 745.4l-22 34.9 32.2-24z"/>
    </g>
    <path fill="#ff5150" d="m155 756-10-10.6 35.4-23.9z"/>
    <path fill="#f1f1f1" d="m155 756-10-10.6-25.4 34.5z"/>
    <path fill="#000" d="m119.6 779.9 35.4-24 25.4-34.4z" opacity=".2"/>
  </g>
  <defs>
    <radialGradient id="c" cx="0" cy="0" r="1" gradientTransform="matrix(47.3433 0 0 47.6037 150.2 744.3)" gradientUnits="userSpaceOnUse">
      <stop stop-color="#06C2E7"/>
      <stop offset=".3" stop-color="#0DB8EC"/>
      <stop offset=".5" stop-color="#12AEF1"/>
      <stop offset=".8" stop-color="#1F86F9"/>
      <stop offset="1" stop-color="#107DDD"/>
    </radialGradient>
    <linearGradient id="b" x1="150" x2="150" y1="798.3" y2="703.1" gradientUnits="userSpaceOnUse">
      <stop stop-color="#BDBDBD"/>
      <stop offset="1" stop-color="#fff"/>
    </linearGradient>
    <clipPath id="a">
      <path fill="#fff" d="M100 703h100v100H100z"/>
    </clipPath>
    <filter id="d" width="61.9" height="60.3" x="120.5" y="722.6" color-interpolation-filters="sRGB" filterUnits="userSpaceOnUse">
      <feFlood flood-opacity="0" result="BackgroundImageFix"/>
      <feBlend in="SourceGraphic" in2="BackgroundImageFix" result="shape"/>
      <feGaussianBlur result="effect1_foregroundBlur_325_6635" stdDeviation="1.3"/>
    </filter>
  </defs>
</svg>
